<?xml version="1.0" encoding="utf-8"?>
<!-- Generator: Adobe Illustrator 25.3.1, SVG Export Plug-In . SVG Version: 6.00 Build 0)  -->
<svg version="1.1" id="레이어_1" xmlns="http://www.w3.org/2000/svg" xmlns:xlink="http://www.w3.org/1999/xlink" x="0px"
	 y="0px" viewBox="0 0 83.3 72.7" style="enable-background:new 0 0 83.3 72.7;" xml:space="preserve">
<style type="text/css">
	.st0{fill:none;stroke:#333333;stroke-width:4;stroke-miterlimit:10;}
</style>
<g id="Layer_2">
	<g id="Layer_1-2">
		<polyline class="st0" points="76.8,33.3 76.8,71.3 6.8,71.3 6.8,33.5 		"/>
		<polyline class="st0" points="6.8,8 6.8,1.3 76.8,1.3 76.8,9.1 		"/>
		<rect x="17.5" y="41" class="st0" width="20.4" height="30.3"/>
		<rect x="46.4" y="41" class="st0" width="19.8" height="19.8"/>
		<path class="st0" d="M21.5,24.5c0,5.6-4.5,10.1-10.1,10.1S1.3,30,1.3,24.5"/>
		<path class="st0" d="M41.7,24.5c0,5.6-4.5,10.1-10.1,10.1S21.5,30,21.5,24.5"/>
		<path class="st0" d="M61.8,24.5c0,5.6-4.5,10.1-10.1,10.1S41.7,30,41.7,24.5"/>
		<path class="st0" d="M82,24.5c0,5.6-4.5,10.1-10.1,10.1S61.8,30,61.8,24.5"/>
		<polygon class="st0" points="53.5,23.2 81.5,23.2 76.8,9.3 52.4,9.3 21.4,9.3 6.6,9.3 1.9,23.2 22,23.2 		"/>
		<line class="st0" x1="21.5" y1="9.1" x2="21.5" y2="18.7"/>
		<line class="st0" x1="41.9" y1="9.4" x2="41.9" y2="18.9"/>
		<line class="st0" x1="61.8" y1="9.4" x2="61.8" y2="18.9"/>
	</g>
</g>
</svg>
