<?xml version="1.0" encoding="UTF-8"?>
<svg width="58px" height="58px" viewBox="0 0 58 58" version="1.1" xmlns="http://www.w3.org/2000/svg" xmlns:xlink="http://www.w3.org/1999/xlink">
    <!-- Generator: Sketch 63.1 (92452) - https://sketch.com -->
    <title>MM_youtube_icon</title>
    <desc>Created with Sketch.</desc>
    <g id="MM_youtube_icon" stroke="none" stroke-width="1" fill="none" fill-rule="evenodd">
        <g id="Group" transform="translate(4.000000, 0.126316)" fill="#333333">
            <path d="M47.9425054,42.3443609 C47.9519133,45.1178947 47.853131,47.8914286 47.6226389,50.6649624 C47.6226389,54.1667669 44.5227561,57.0100752 40.7031737,57.0100752 C35.2466273,57.2193985 29.667779,57.3153383 23.9713328,57.3066165 C18.2795904,57.3153383 12.7007422,57.2193985 7.24419579,57.0100752 C3.42461333,57.0100752 0.320026597,54.1667669 0.320026597,50.6649624 C0.0942384716,47.8914286 -0.00454383344,45.1178947 0.000160085845,42.3443609 C-0.00454383344,39.5664662 0.0942384716,36.7929323 0.320026597,34.0193985 C0.320026597,30.517594 3.42461333,27.6742857 7.24419579,27.6742857 C12.7007422,27.4649624 18.2795904,27.3690226 23.9713328,27.3821053 C29.667779,27.3690226 35.2466273,27.4649624 40.7031737,27.6742857 C44.5227561,27.6742857 47.6226389,30.517594 47.6226389,34.0193985 C47.853131,36.7929323 47.9519133,39.5664662 47.9425054,42.3443609 L47.9425054,42.3443609 Z M43.9818054,47.7954887 L43.9818054,46.4959398 L40.9854088,46.4959398 L40.9854088,47.5076692 C40.9854088,48.3580451 40.8913304,48.9118797 40.6984697,49.1604511 C40.5056091,49.4090226 40.1716308,49.5354887 39.6871271,49.5354887 C39.226143,49.5354887 38.8968687,49.387218 38.704008,49.0906767 C38.5111473,48.7984962 38.4170689,48.2664662 38.4170689,47.5076692 L38.4170689,44.9783459 L43.9818054,44.9783459 L43.9818054,41.0753383 C43.9818054,39.7016541 43.6243075,38.6463158 42.9093118,37.9136842 C42.1943161,37.1766917 41.1735656,36.8103759 39.8423564,36.8103759 C38.5393708,36.8103759 37.476285,37.207218 36.6578031,38.0009023 C35.8346172,38.7945865 35.4253762,39.8193985 35.4253762,41.0753383 L35.4253762,47.7954887 C35.4253762,49.1909774 35.7969859,50.2899248 36.544909,51.0879699 C37.2928322,51.886015 38.3182866,52.2828571 39.6212722,52.2828571 C41.0700794,52.2828571 42.1566847,51.9078195 42.8857922,51.1533835 C43.6148997,50.4033083 43.9818054,49.2825564 43.9818054,47.7954887 L43.9818054,47.7954887 Z M33.2286459,48.8857143 L33.2286459,40.6305263 C33.2286459,39.4443609 32.988746,38.5416541 32.5042424,37.922406 C32.0197387,37.3031579 31.3141508,36.9935338 30.3921826,36.9935338 C29.9453103,36.9935338 29.4984379,37.1112782 29.0562695,37.342406 C28.6141011,37.5691729 28.2001562,37.9093233 27.8097309,38.3497744 L27.8097309,32.0221053 L24.8697814,32.0221053 L24.8697814,51.8903759 L27.8097309,51.8903759 L27.8097309,50.7783459 C28.1907484,51.218797 28.6046933,51.5458647 29.0515656,51.755188 C29.493734,51.9688722 30.0017573,52.0735338 30.5709315,52.0735338 C31.4317488,52.0735338 32.0902975,51.8031579 32.5465776,51.2536842 C33.0028578,50.7085714 33.2286459,49.9192481 33.2286459,48.8857143 L33.2286459,48.8857143 Z M22.033318,51.8903759 L22.033318,37.1766917 L19.1262959,37.1766917 L19.1262959,48.1879699 C18.8534686,48.5063158 18.5524177,48.763609 18.2231434,48.9685714 C17.898573,49.1735338 17.6304496,49.2738346 17.4140693,49.2738346 C17.141242,49.2738346 16.9436774,49.1953383 16.8213755,49.0427068 C16.6990736,48.8900752 16.6379226,48.6415038 16.6379226,48.2969925 L16.6379226,37.1766917 L13.7309005,37.1766917 L13.7309005,49.5093233 C13.7309005,50.372782 13.9002416,51.0225564 14.2436277,51.4542857 C14.5823099,51.886015 15.0903332,52.0996992 15.7629936,52.0996992 C16.3086483,52.0996992 16.8731186,51.9470677 17.4517006,51.6374436 C18.0302827,51.3278195 18.5900491,50.8786466 19.1262959,50.2899248 L19.1262959,51.8903759 L22.033318,51.8903759 L22.033318,51.8903759 Z M13.7685318,35.0834586 L13.7685318,32.0221053 L3.71625632,32.0221053 L3.71625632,35.0834586 L7.10778213,35.0834586 L7.10778213,51.8903759 L10.38171,51.8903759 L10.38171,35.0834586 L13.7685318,35.0834586 L13.7685318,35.0834586 Z" id="Fill-3"></path>
            <path d="M41.2394205,6.36691729 L41.2394205,24.2815038 L37.6503301,24.2815038 L37.6503301,22.306015 C36.9870774,23.0342857 36.2956013,23.5881203 35.5806056,23.9718797 C34.8656098,24.3512782 34.1694298,24.5431579 33.4967693,24.5431579 C32.6641756,24.5431579 32.0385543,24.2771429 31.6199055,23.7407519 C31.1965528,23.2087218 30.9848764,22.4063158 30.9848764,21.3422556 L30.9848764,6.36691729 L34.5786708,6.36691729 L34.5786708,20.0993985 C34.5786708,20.5267669 34.6539335,20.8320301 34.8044589,21.0239098 C34.9549843,21.2114286 35.1995881,21.3073684 35.5382703,21.3073684 C35.8016898,21.3073684 36.135668,21.1809023 36.5402051,20.9323308 C36.9400382,20.6793985 37.3116479,20.3566917 37.6503301,19.9685714 L37.6503301,6.36691729 L41.2394205,6.36691729" id="Fill-4"></path>
            <path d="M40.9854088,41.2584962 L40.9854088,42.518797 L38.4170689,42.518797 L38.4170689,41.2584962 C38.4170689,40.6523308 38.5158512,40.2162406 38.7181197,39.9545865 C38.9203883,39.6929323 39.2543665,39.5621053 39.7153506,39.5621053 C40.157519,39.5621053 40.4820895,39.6929323 40.684358,39.9545865 C40.8866265,40.2162406 40.9854088,40.6523308 40.9854088,41.2584962" id="Fill-5"></path>
            <path d="M30.2369533,41.001203 L30.2369533,48.2839098 C30.2369533,48.7461654 30.1522827,49.077594 29.9829416,49.2825564 C29.8183044,49.4875188 29.554885,49.5878195 29.202091,49.5878195 C28.9527833,49.5878195 28.7175873,49.5354887 28.4965031,49.4308271 C28.2754189,49.3261654 28.0449269,49.1560902 27.8097309,48.9206015 L27.8097309,40.0941353 C28.0072955,39.8935338 28.2048601,39.7452632 28.4071287,39.6493233 C28.6093972,39.5577444 28.8163696,39.5097744 29.0233421,39.5097744 C29.4184713,39.5097744 29.7195221,39.6362406 29.9264946,39.8891729 C30.133467,40.1421053 30.2369533,40.512782 30.2369533,41.001203" id="Fill-6"></path>
            <path d="M27.9367367,10.5664662 L27.9367367,19.8159398 C27.9367367,21.3509774 27.4710487,22.5545865 26.5396727,23.4267669 C25.6082967,24.2989474 24.3288306,24.7350376 22.6965706,24.7350376 C21.1254616,24.7350376 19.8648112,24.2858647 18.9240274,23.3831579 C17.9785396,22.484812 17.5081477,21.2724812 17.5081477,19.7505263 L17.5081477,10.4661654 C17.5081477,9.07503759 17.9926514,7.97172932 18.9569548,7.1518797 C19.9259622,6.32766917 21.2242439,5.91774436 22.8612078,5.91774436 C24.3476463,5.91774436 25.5659614,6.34947368 26.5114492,7.21729323 C27.4616409,8.08511278 27.9367367,9.20150376 27.9367367,10.5664662 L27.9367367,10.5664662 Z M24.2770875,20.0863158 L24.2770875,10.3309774 C24.2770875,9.93849624 24.1265621,9.62451128 23.8349191,9.38030075 C23.5432761,9.14045113 23.1622587,9.02270677 22.6871628,9.02270677 C22.2449944,9.02270677 21.8922004,9.14045113 21.6146692,9.38030075 C21.3418419,9.62451128 21.2054282,9.93849624 21.2054282,10.3309774 L21.2054282,20.0863158 C21.2054282,20.5790977 21.332434,20.9584962 21.5911496,21.2288722 C21.8451612,21.4992481 22.212067,21.6300752 22.6871628,21.6300752 C23.1716665,21.6300752 23.5573879,21.4948872 23.8443269,21.2201504 C24.131266,20.9454135 24.2770875,20.566015 24.2770875,20.0863158 L24.2770875,20.0863158 Z" id="Fill-7"></path>
            <polyline id="Fill-8" points="17.6916005 4.46457686e-14 12.9829773 14.2078195 12.9829773 24.2815038 8.93760673 24.2815038 8.93760673 14.6613534 4.1254973 4.46457686e-14 8.1990914 4.46457686e-14 10.8238784 9.70736842 11.07789 9.70736842 13.5803751 4.46457686e-14 17.6916005 4.46457686e-14"></polyline>
        </g>
    </g>
</svg>