<?xml version="1.0" encoding="utf-8"?>
<!-- Generator: Adobe Illustrator 25.3.1, SVG Export Plug-In . SVG Version: 6.00 Build 0)  -->
<svg version="1.1" id="레이어_1" xmlns="http://www.w3.org/2000/svg" xmlns:xlink="http://www.w3.org/1999/xlink" x="0px"
	 y="0px" viewBox="0 0 83.6 59.2" style="enable-background:new 0 0 83.6 59.2;" xml:space="preserve">
<style type="text/css">
	.st0{fill:none;stroke:#333333;stroke-width:4;stroke-linejoin:round;}
</style>
<g id="Layer_2">
	<g id="Layer_1-2">
		<polyline class="st0" points="15.8,9.8 15.8,1.1 58.1,1.1 58.1,14.1 70.8,14.4 82.5,27.1 82.5,43.4 52.4,43.4 15.8,43.4 
			15.8,34.5 		"/>
		<polygon class="st0" points="74.8,29.5 74.8,26 69.2,19.9 63,19.7 63,29.5 		"/>
		<polyline class="st0" points="73.6,49.9 79.3,49.9 79.3,44 		"/>
		<polyline class="st0" points="38.5,49.9 52.4,49.9 59.1,49.9 		"/>
		<polyline class="st0" points="19.1,43.4 19.1,49.9 25.7,49.9 		"/>
		<circle class="st0" cx="32.2" cy="50.8" r="7.3"/>
		<circle class="st0" cx="66.4" cy="50.8" r="7.3"/>
		<line class="st0" x1="58.1" y1="7.6" x2="58.1" y2="43.4"/>
		<line class="st0" x1="5.7" y1="15.4" x2="35.8" y2="15.4"/>
		<line class="st0" x1="2.7" y1="22" x2="32.8" y2="22"/>
		<line class="st0" x1="0" y1="28.8" x2="30.1" y2="28.8"/>
	</g>
</g>
</svg>
