<svg xmlns="http://www.w3.org/2000/svg" viewBox="0 0 83.61 59.17"><defs><style>.cls-1{fill:none;stroke:#333;stroke-linejoin:round;stroke-width:2.17px;}</style></defs><title>Asset 3</title><g id="Layer_2" data-name="Layer 2"><g id="Layer_1-2" data-name="Layer 1"><polyline class="cls-1" points="15.82 9.84 15.82 1.08 58.12 1.08 58.12 14.1 70.81 14.43 82.53 27.11 82.53 43.39 52.42 43.39 15.82 43.39 15.82 34.51"/><polygon class="cls-1" points="74.83 29.47 74.83 26.02 69.15 19.87 63 19.71 63 29.47 74.83 29.47"/><polyline class="cls-1" points="73.62 49.89 79.27 49.89 79.27 43.99"/><polyline class="cls-1" points="38.51 49.89 52.42 49.89 59.09 49.89"/><polyline class="cls-1" points="19.07 43.39 19.07 49.89 25.68 49.89"/><circle class="cls-1" cx="32.21" cy="50.76" r="7.32" transform="translate(-11.2 9.17) rotate(-13.83)"/><circle class="cls-1" cx="66.36" cy="50.76" r="7.32" transform="translate(-10.21 17.33) rotate(-13.83)"/><line class="cls-1" x1="58.12" y1="7.59" x2="58.12" y2="43.39"/><line class="cls-1" x1="5.67" y1="15.41" x2="35.81" y2="15.41"/><line class="cls-1" x1="2.69" y1="21.97" x2="32.83" y2="21.97"/><line class="cls-1" y1="28.84" x2="30.14" y2="28.84"/></g></g></svg>