<svg xmlns="http://www.w3.org/2000/svg" viewBox="0 0 83.34 72.66"><defs><style>.cls-1{fill:none;}.cls-1,.cls-2{stroke:#333;stroke-miterlimit:10;stroke-width:2.66px;}.cls-2{fill:#fff;}</style></defs><title>Asset 5</title><g id="Layer_2" data-name="Layer 2"><g id="Layer_1-2" data-name="Layer 1"><polyline class="cls-1" points="76.83 33.28 76.83 71.33 6.83 71.33 6.83 33.45"/><polyline class="cls-1" points="6.83 8 6.83 1.33 76.83 1.33 76.83 9.05"/><rect class="cls-1" x="17.55" y="40.96" width="20.35" height="30.35"/><rect class="cls-1" x="46.41" y="40.96" width="19.8" height="19.8"/><path class="cls-1" d="M21.5,24.47a10.08,10.08,0,0,1-20.17,0"/><path class="cls-1" d="M41.67,24.47a10.08,10.08,0,1,1-20.17,0"/><path class="cls-1" d="M61.84,24.47a10.08,10.08,0,0,1-20.17,0"/><path class="cls-1" d="M82,24.47a10.08,10.08,0,0,1-20.17,0"/><polygon class="cls-1" points="53.49 23.2 81.47 23.2 76.84 9.3 52.38 9.3 21.43 9.3 6.55 9.3 1.92 23.2 21.99 23.2 53.49 23.2"/><line class="cls-2" x1="21.5" y1="9.13" x2="21.5" y2="18.72"/><line class="cls-2" x1="41.86" y1="9.35" x2="41.86" y2="18.94"/><line class="cls-2" x1="61.84" y1="9.35" x2="61.84" y2="18.94"/></g></g></svg>