<?xml version="1.0" encoding="UTF-8"?>
<svg width="58px" height="58px" viewBox="0 0 58 58" version="1.1" xmlns="http://www.w3.org/2000/svg" xmlns:xlink="http://www.w3.org/1999/xlink">
    <!-- Generator: Sketch 63.1 (92452) - https://sketch.com -->
    <title>MM_instagram_icon</title>
    <desc>Created with Sketch.</desc>
    <g id="MM_instagram_icon" stroke="none" stroke-width="1" fill="none" fill-rule="evenodd">
        <path d="M58,8.90522795 L58,48.8693871 C58,52.6654336 54.6506425,55.7746151 50.5516251,55.7746151 L7.44399093,55.7746151 C3.34935752,55.7746151 0,52.6654336 0,48.8693871 L0,8.90522795 C0,5.10918151 3.34935752,2 7.44399093,2 L50.5516251,2 C54.6506425,2 58,5.10918151 58,8.90522795 L58,8.90522795 Z M51.4459562,47.4550144 L51.4459562,24.7397 L46.3386243,24.7397 C46.8208617,26.2028443 47.0839002,27.7513386 47.0839002,29.356733 C47.0839002,38.29817 39.0086168,45.5488626 29.0526077,45.5488626 C19.0965986,45.5488626 11.0256992,38.29817 11.0256992,29.356733 C11.0256992,27.7513386 11.2887377,26.2028443 11.7709751,24.7397 L6.44444444,24.7397 L6.44444444,47.4550144 C6.44444444,48.629594 7.47906274,49.5928307 8.75041572,49.5928307 L49.1356009,49.5928307 C50.4069539,49.5928307 51.4459562,48.629594 51.4459562,47.4550144 L51.4459562,47.4550144 Z M51.4152683,16.1924991 L51.4152683,10.3968222 C51.4152683,9.06373524 50.2403628,7.97450564 48.8068027,7.97450564 L42.2483749,7.97450564 C40.8104308,7.97450564 39.6399093,9.06373524 39.6399093,10.3968222 L39.6399093,16.1924991 C39.6399093,17.5215218 40.8104308,18.6107514 42.2483749,18.6107514 L48.8068027,18.6107514 C50.2403628,18.6107514 51.4152683,17.5215218 51.4152683,16.1924991 L51.4152683,16.1924991 Z M40.7008314,28.7714753 C40.7008314,22.9920555 35.4882842,18.3059297 29.0526077,18.3059297 C22.6213152,18.3059297 17.404384,22.9920555 17.404384,28.7714753 C17.404384,34.550895 22.6213152,39.2329566 29.0526077,39.2329566 C35.4882842,39.2329566 40.7008314,34.550895 40.7008314,28.7714753 L40.7008314,28.7714753 Z" id="Fill-2" fill="#333333"></path>
    </g>
</svg>