<svg xmlns="http://www.w3.org/2000/svg" viewBox="0 0 72.64 72.64"><defs><style>.cls-1,.cls-2,.cls-3{fill:none;stroke:#333;stroke-width:2.64px;}.cls-1{stroke-linejoin:round;}.cls-2{stroke-linecap:round;}.cls-2,.cls-3{stroke-miterlimit:10;}</style></defs><title>Asset 4</title><g id="Layer_2" data-name="Layer 2"><g id="Layer_1-2" data-name="Layer 1"><path class="cls-1" d="M33.86,61l12.91-5.27L41,41.52l-9,3.68L29,38.08l0,.09-2.83-6.93,9-3.68L29.46,13.32,16.55,18.58h0C14.69,25.33,15.4,34,18.86,42.45l0,0c3.46,8.48,9,15.09,15,18.62Z"/><line class="cls-1" x1="24.24" y1="15.45" x2="30.05" y2="29.69"/><line class="cls-1" x1="35.74" y1="43.65" x2="41.55" y2="57.89"/><path class="cls-2" d="M36.32,71.32A35,35,0,1,1,62.12,60"/><path class="cls-2" d="M45.92,18A17.1,17.1,0,0,1,56,40"/><path class="cls-2" d="M42.34,24.71a11.06,11.06,0,0,1,6.5,14.23"/><path class="cls-3" d="M62.9,59c-3.3,3.65-7.23,5.86-12.7,5.8-4.62-.05-7.78-2.32-10.56-5.59"/></g></g></svg>